<?xml version="1.0" ?><svg viewBox="0 0 32 32" xmlns="http://www.w3.org/2000/svg"><title/><g id="power"><path d="M15.5,16A3.5,3.5,0,0,1,12,12.5v-8a3.5,3.5,0,1,1,7,0v8A3.5,3.5,0,0,1,15.5,16Zm0-13A1.5,1.5,0,0,0,14,4.5v8a1.5,1.5,0,0,0,3,0v-8A1.5,1.5,0,0,0,15.5,3Z"/><path d="M15.52,32l-.74,0A15.47,15.47,0,0,1,8.58,2.68,1,1,0,0,1,10,3.57l0,7.5a1,1,0,0,1-.23.64,7.48,7.48,0,1,0,13.14,5.9,7.41,7.41,0,0,0-1.65-5.89,1,1,0,0,1-.23-.64l0-7.51a1,1,0,0,1,1.45-.89,15.46,15.46,0,0,1,3.75,25A15.35,15.35,0,0,1,15.52,32ZM8,5.31a13.47,13.47,0,1,0,15,0l0,5.42a9.34,9.34,0,0,1,1.86,7.16A9.48,9.48,0,1,1,8,10.72Z"/></g></svg>